<?plantuml 1.2026.1?><svg xmlns="http://www.w3.org/2000/svg" xmlns:xlink="http://www.w3.org/1999/xlink" contentStyleType="text/css" data-diagram-type="ACTIVITY" height="751px" preserveAspectRatio="none" style="width:432px;height:751px;background:#FFFFFF;" version="1.1" viewBox="0 0 432 751" width="432px" zoomAndPan="magnify"><title>&#21830;&#21697;&#21839;&#12356;&#21512;&#12431;&#12379;&#12316;&#36092;&#20837;&#65288;&#12473;&#12452;&#12512;&#12524;&#12540;&#12531;&#65289;</title><defs/><g><g class="title" data-source-line="1"><text fill="#000000" font-family="sans-serif" font-size="14" font-weight="bold" lengthAdjust="spacing" textLength="151.2246" x="139.0178" y="32.9951">&#21830;&#21697;&#21839;&#12356;&#21512;&#12431;&#12379;&#12316;&#36092;&#20837;&#65288;&#12473;&#12452;&#12512;&#12524;&#12540;&#12531;&#65289;</text></g><rect fill="none" height="20.9531" style="stroke:none;stroke-width:1;" width="399.2603" x="15" y="50.042"/><ellipse cx="97.8779" cy="85.9951" fill="#222222" rx="10" ry="10" style="stroke:#222222;stroke-width:1;"/><rect fill="#FFFFFF" height="33.9688" rx="12.5" ry="12.5" style="stroke:#000000;stroke-width:0.5;" width="84.8105" x="55.4727" y="115.9951"/><text fill="#000000" font-family="sans-serif" font-size="12" lengthAdjust="spacing" textLength="64.8105" x="65.4727" y="137.1338">&#21830;&#21697;&#12434;&#21839;&#12356;&#21512;&#12431;&#12379;&#12427;</text><polygon fill="#FFFFFF" points="81.3752,359.8076,114.3806,359.8076,126.3806,371.8076,114.3806,383.8076,81.3752,383.8076,69.3752,371.8076,81.3752,359.8076" style="stroke:#000000;stroke-width:0.5;"/><text fill="#000000" font-family="sans-serif" font-size="11" lengthAdjust="spacing" textLength="33.0054" x="81.3752" y="375.6157">&#22312;&#24235;&#12354;&#12426;&#65311;</text><text fill="#000000" font-family="sans-serif" font-size="11" lengthAdjust="spacing" textLength="26.4043" x="42.9709" y="369.2134">&#22312;&#24235;&#12354;&#12426;</text><text fill="#000000" font-family="sans-serif" font-size="11" lengthAdjust="spacing" textLength="26.4043" x="126.3806" y="369.2134">&#22770;&#12426;&#20999;&#12428;</text><rect fill="#FFFFFF" height="33.9688" rx="12.5" ry="12.5" style="stroke:#000000;stroke-width:0.5;" width="70.4082" x="21" y="403.8076"/><text fill="#000000" font-family="sans-serif" font-size="12" lengthAdjust="spacing" textLength="50.4082" x="31" y="424.9463">&#21830;&#21697;&#12434;&#36092;&#20837;&#12377;&#12427;</text><rect fill="#FFFFFF" height="33.9688" rx="12.5" ry="12.5" style="stroke:#000000;stroke-width:0.5;" width="70.4082" x="21" y="647.6201"/><text fill="#000000" font-family="sans-serif" font-size="12" lengthAdjust="spacing" textLength="50.4082" x="31" y="668.7588">&#21830;&#21697;&#12434;&#21463;&#12369;&#21462;&#12427;</text><ellipse cx="56.2041" cy="712.5889" fill="none" rx="11" ry="11" style="stroke:#222222;stroke-width:1;"/><ellipse cx="56.2041" cy="712.5889" fill="#222222" rx="6" ry="6" style="stroke:#222222;stroke-width:1;"/><rect fill="#FFFFFF" height="33.9688" rx="12.5" ry="12.5" style="stroke:#000000;stroke-width:0.5;" width="48.8047" x="115.1494" y="403.8076"/><text fill="#000000" font-family="sans-serif" font-size="12" lengthAdjust="spacing" textLength="28.8047" x="125.1494" y="424.9463">&#22770;&#12426;&#20999;&#12428;</text><ellipse cx="139.5518" cy="468.7764" fill="none" rx="11" ry="11" style="stroke:#222222;stroke-width:1;"/><ellipse cx="139.5518" cy="468.7764" fill="#222222" rx="6" ry="6" style="stroke:#222222;stroke-width:1;"/><line style="stroke:#000000;stroke-width:1.5;" x1="15" x2="15" y1="50.042" y2="739.5889"/><rect fill="#FFFFFF" height="33.9688" rx="12.5" ry="12.5" style="stroke:#000000;stroke-width:0.5;" width="70.4082" x="208.4268" y="169.9639"/><text fill="#000000" font-family="sans-serif" font-size="12" lengthAdjust="spacing" textLength="50.4082" x="218.4268" y="191.1025">&#22312;&#24235;&#12434;&#30906;&#35469;&#12377;&#12427;</text><rect fill="#FFFFFF" height="47.9375" rx="12.5" ry="12.5" style="stroke:#000000;stroke-width:0.5;" width="56.0059" x="215.6279" y="291.8701"/><text fill="#000000" font-family="sans-serif" font-size="12" lengthAdjust="spacing" textLength="36.0059" x="225.6279" y="313.0088">&#22312;&#24235;&#29366;&#27841;&#12434;</text><text fill="#000000" font-family="sans-serif" font-size="12" lengthAdjust="spacing" textLength="21.6035" x="225.6279" y="326.9775">&#20253;&#12360;&#12427;</text><rect fill="#FFFFFF" height="47.9375" rx="12.5" ry="12.5" style="stroke:#000000;stroke-width:0.5;" width="56.0059" x="173.9541" y="457.7764"/><text fill="#000000" font-family="sans-serif" font-size="12" lengthAdjust="spacing" textLength="36.0059" x="183.9541" y="478.915">&#12471;&#12473;&#12486;&#12512;&#12395;</text><text fill="#000000" font-family="sans-serif" font-size="12" lengthAdjust="spacing" textLength="28.8047" x="183.9541" y="492.8838">&#20837;&#21147;&#12377;&#12427;</text><rect fill="#FFFFFF" height="33.9688" rx="12.5" ry="12.5" style="stroke:#000000;stroke-width:0.5;" width="56.0059" x="173.9541" y="593.6514"/><text fill="#000000" font-family="sans-serif" font-size="12" lengthAdjust="spacing" textLength="36.0059" x="183.9541" y="614.79">&#21830;&#21697;&#12434;&#28193;&#12377;</text><line style="stroke:#000000;stroke-width:1.5;" x1="167.9541" x2="167.9541" y1="50.042" y2="739.5889"/><rect fill="#FFFFFF" height="47.9375" rx="12.5" ry="12.5" style="stroke:#000000;stroke-width:0.5;" width="77.8906" x="330.5088" y="223.9326"/><text fill="#000000" font-family="sans-serif" font-size="12" lengthAdjust="spacing" textLength="57.8906" x="340.5088" y="245.0713">&#171;&#12487;&#12540;&#12479;&#12473;&#12488;&#12450;&#187;</text><text fill="#000000" font-family="sans-serif" font-size="12" lengthAdjust="spacing" textLength="28.8047" x="340.5088" y="259.04">&#22312;&#24235;&#24773;&#22577;</text><rect fill="#FFFFFF" height="47.9375" rx="12.5" ry="12.5" style="stroke:#000000;stroke-width:0.5;" width="77.8906" x="288.835" y="525.7139"/><text fill="#000000" font-family="sans-serif" font-size="12" lengthAdjust="spacing" textLength="57.8906" x="298.835" y="546.8525">&#171;&#12487;&#12540;&#12479;&#12473;&#12488;&#12450;&#187;</text><text fill="#000000" font-family="sans-serif" font-size="12" lengthAdjust="spacing" textLength="28.8047" x="298.835" y="560.8213">&#22770;&#19978;&#24773;&#22577;</text><line style="stroke:#000000;stroke-width:1.5;" x1="282.835" x2="282.835" y1="50.042" y2="739.5889"/><line style="stroke:#000000;stroke-width:1.5;" x1="412.3994" x2="412.3994" y1="50.042" y2="739.5889"/><line style="stroke:#181818;stroke-width:1;" x1="97.8779" x2="97.8779" y1="95.9951" y2="115.9951"/><polygon fill="#181818" points="93.8779,105.9951,97.8779,115.9951,101.8779,105.9951,97.8779,109.9951" style="stroke:#181818;stroke-width:1;"/><line style="stroke:#181818;stroke-width:1;" x1="56.2041" x2="56.2041" y1="681.5889" y2="701.5889"/><polygon fill="#181818" points="52.2041,691.5889,56.2041,701.5889,60.2041,691.5889,56.2041,695.5889" style="stroke:#181818;stroke-width:1;"/><line style="stroke:#181818;stroke-width:1;" x1="139.5518" x2="139.5518" y1="437.7764" y2="457.7764"/><polygon fill="#181818" points="135.5518,447.7764,139.5518,457.7764,143.5518,447.7764,139.5518,451.7764" style="stroke:#181818;stroke-width:1;"/><line style="stroke:#181818;stroke-width:1;" x1="69.3752" x2="56.2041" y1="371.8076" y2="371.8076"/><line style="stroke:#181818;stroke-width:1;" x1="56.2041" x2="56.2041" y1="371.8076" y2="403.8076"/><polygon fill="#181818" points="52.2041,393.8076,56.2041,403.8076,60.2041,393.8076,56.2041,397.8076" style="stroke:#181818;stroke-width:1;"/><line style="stroke:#181818;stroke-width:1;" x1="126.3806" x2="139.5518" y1="371.8076" y2="371.8076"/><line style="stroke:#181818;stroke-width:1;" x1="139.5518" x2="139.5518" y1="371.8076" y2="403.8076"/><polygon fill="#181818" points="135.5518,393.8076,139.5518,403.8076,143.5518,393.8076,139.5518,397.8076" style="stroke:#181818;stroke-width:1;"/><line style="stroke:#181818;stroke-width:1;" x1="97.8779" x2="97.8779" y1="149.9639" y2="154.9639"/><line style="stroke:#181818;stroke-width:1;" x1="97.8779" x2="243.6309" y1="154.9639" y2="154.9639"/><line style="stroke:#181818;stroke-width:1;" x1="243.6309" x2="243.6309" y1="154.9639" y2="169.9639"/><polygon fill="#181818" points="239.6309,159.9639,243.6309,169.9639,247.6309,159.9639,243.6309,163.9639" style="stroke:#181818;stroke-width:1;"/><line style="stroke:#181818;stroke-width:1;" x1="243.6309" x2="243.6309" y1="203.9326" y2="208.9326"/><line style="stroke:#181818;stroke-width:1;" x1="243.6309" x2="369.4541" y1="208.9326" y2="208.9326"/><line style="stroke:#181818;stroke-width:1;" x1="369.4541" x2="369.4541" y1="208.9326" y2="223.9326"/><polygon fill="#181818" points="365.4541,213.9326,369.4541,223.9326,373.4541,213.9326,369.4541,217.9326" style="stroke:#181818;stroke-width:1;"/><line style="stroke:#181818;stroke-width:1;" x1="369.4541" x2="369.4541" y1="271.8701" y2="276.8701"/><line style="stroke:#181818;stroke-width:1;" x1="369.4541" x2="243.6309" y1="276.8701" y2="276.8701"/><line style="stroke:#181818;stroke-width:1;" x1="243.6309" x2="243.6309" y1="276.8701" y2="291.8701"/><polygon fill="#181818" points="239.6309,281.8701,243.6309,291.8701,247.6309,281.8701,243.6309,285.8701" style="stroke:#181818;stroke-width:1;"/><line style="stroke:#181818;stroke-width:1;" x1="56.2041" x2="56.2041" y1="437.7764" y2="442.7764"/><line style="stroke:#181818;stroke-width:1;" x1="56.2041" x2="201.957" y1="442.7764" y2="442.7764"/><line style="stroke:#181818;stroke-width:1;" x1="201.957" x2="201.957" y1="442.7764" y2="457.7764"/><polygon fill="#181818" points="197.957,447.7764,201.957,457.7764,205.957,447.7764,201.957,451.7764" style="stroke:#181818;stroke-width:1;"/><line style="stroke:#181818;stroke-width:1;" x1="201.957" x2="201.957" y1="505.7139" y2="510.7139"/><line style="stroke:#181818;stroke-width:1;" x1="201.957" x2="327.7803" y1="510.7139" y2="510.7139"/><line style="stroke:#181818;stroke-width:1;" x1="327.7803" x2="327.7803" y1="510.7139" y2="525.7139"/><polygon fill="#181818" points="323.7803,515.7139,327.7803,525.7139,331.7803,515.7139,327.7803,519.7139" style="stroke:#181818;stroke-width:1;"/><line style="stroke:#181818;stroke-width:1;" x1="327.7803" x2="327.7803" y1="573.6514" y2="578.6514"/><line style="stroke:#181818;stroke-width:1;" x1="327.7803" x2="201.957" y1="578.6514" y2="578.6514"/><line style="stroke:#181818;stroke-width:1;" x1="201.957" x2="201.957" y1="578.6514" y2="593.6514"/><polygon fill="#181818" points="197.957,583.6514,201.957,593.6514,205.957,583.6514,201.957,587.6514" style="stroke:#181818;stroke-width:1;"/><line style="stroke:#181818;stroke-width:1;" x1="201.957" x2="201.957" y1="627.6201" y2="632.6201"/><line style="stroke:#181818;stroke-width:1;" x1="201.957" x2="56.2041" y1="632.6201" y2="632.6201"/><line style="stroke:#181818;stroke-width:1;" x1="56.2041" x2="56.2041" y1="632.6201" y2="647.6201"/><polygon fill="#181818" points="52.2041,637.6201,56.2041,647.6201,60.2041,637.6201,56.2041,641.6201" style="stroke:#181818;stroke-width:1;"/><line style="stroke:#181818;stroke-width:1;" x1="243.6309" x2="243.6309" y1="339.8076" y2="344.8076"/><line style="stroke:#181818;stroke-width:1;" x1="243.6309" x2="97.8779" y1="344.8076" y2="344.8076"/><line style="stroke:#181818;stroke-width:1;" x1="97.8779" x2="97.8779" y1="344.8076" y2="359.8076"/><polygon fill="#181818" points="93.8779,349.8076,97.8779,359.8076,101.8779,349.8076,97.8779,353.8076" style="stroke:#181818;stroke-width:1;"/><text fill="#000000" font-family="sans-serif" font-size="18" lengthAdjust="spacing" textLength="21.6035" x="80.6753" y="66.75">&#39015;&#23458;</text><text fill="#000000" font-family="sans-serif" font-size="18" lengthAdjust="spacing" textLength="21.6035" x="214.5928" y="66.75">&#24215;&#21729;</text><text fill="#000000" font-family="sans-serif" font-size="18" lengthAdjust="spacing" textLength="86.4141" x="304.4102" y="66.75">&#36009;&#22770;&#31649;&#29702;&#12471;&#12473;&#12486;&#12512;</text><?plantuml-src TPBBJi9058RtynIpr5TGmq8Jdy9DXGADC6FQKMB4n4xb8chm4YH6ZLmaNZ0cGg98clWmXm5SyGeUBDPgTDVyvv_v_-zCXI4IEbMbh3gnLQa8zeuwp8F4ZtFOlXYsNPLfZ5nKNa5UWrC1vm4S5vpsoDqbn5ensAfcQabgnRK8JnaiHgDQmj83aoHdF1mtULAdmbmBJhImCDODiK4t2QNpMdWbPl8r5bdW2MxILDmG-bZdPaGtFMqvWIRK5ZaJGMMBaFHxzKOzrjB44fefo8n71FBuDvJScqMtwfRLIJMDlejRrMsYRr3h3kyFm3wRE8QjErLl3HwhWyCio9Vn0fmiBW3FpCs1anjlGRvzodXrBHHQOjvTVIUZAaz_X0mAp_tskD8IwxcNOESdIL_DZIYTcjIn9SZ2oBsQfYAkiv_oD2xW6yzx8RysfNugkeAzmMvYmqn35Sw3xlynyVo_eFLMhrFmGN-6-jNwdIecUVClnk1S5SjW7wdYwMSPIYt1LmdHyUz1u7eBKLK-1tBV0mu8lbbd4IDAFW00?></g></svg>