<?xml version="1.0" encoding="UTF-8" standalone="no"?><svg xmlns="http://www.w3.org/2000/svg" xmlns:xlink="http://www.w3.org/1999/xlink" contentScriptType="application/ecmascript" contentStyleType="text/css" height="1322px" preserveAspectRatio="none" style="width:1837px;height:1322px;" version="1.1" viewBox="0 0 1837 1322" width="1837px" zoomAndPan="magnify"><defs/><g><text fill="#000000" font-family="Noto Sans CJK JP" font-size="18" lengthAdjust="spacingAndGlyphs" textLength="410" x="712.75" y="30.8799">商品問い合わせ〜購入（スイムレーン 9レーン例）</text><ellipse cx="242.5" cy="80.8116" fill="#000000" rx="10" ry="10" style="stroke: none; stroke-width: 1.0;"/><rect fill="#F8F8F8" height="37.3761" rx="12.5" ry="12.5" style="stroke: #383838; stroke-width: 1.5;" width="128" x="178.5" y="110.8116"/><text fill="#000000" font-family="Noto Sans CJK JP" font-size="12" lengthAdjust="spacingAndGlyphs" textLength="108" x="188.5" y="134.7317">商品を問い合わせる</text><polygon fill="#F8F8F8" points="215,547.1967,270,547.1967,282,559.1967,270,571.1967,215,571.1967,203,559.1967,215,547.1967" style="stroke: #383838; stroke-width: 1.5;"/><text fill="#000000" font-family="Noto Sans CJK JP" font-size="11" lengthAdjust="spacingAndGlyphs" textLength="55" x="215" y="563.9927">在庫あり？</text><text fill="#000000" font-family="Noto Sans CJK JP" font-size="11" lengthAdjust="spacingAndGlyphs" textLength="44" x="159" y="556.0288">在庫あり</text><text fill="#000000" font-family="Noto Sans CJK JP" font-size="11" lengthAdjust="spacingAndGlyphs" textLength="44" x="282" y="556.0288">売り切れ</text><rect fill="#F8F8F8" height="37.3761" rx="12.5" ry="12.5" style="stroke: #383838; stroke-width: 1.5;" width="116" x="83" y="591.1967"/><text fill="#000000" font-family="Noto Sans CJK JP" font-size="12" lengthAdjust="spacingAndGlyphs" textLength="96" x="93" y="615.1168">購入意思を伝える</text><rect fill="#F8F8F8" height="37.3761" rx="12.5" ry="12.5" style="stroke: #383838; stroke-width: 1.5;" width="104" x="20" y="1198.958"/><text fill="#000000" font-family="Noto Sans CJK JP" font-size="12" lengthAdjust="spacingAndGlyphs" textLength="84" x="30" y="1222.878">商品を受け取る</text><ellipse cx="72" cy="1267.3341" fill="#FFFFFF" rx="11" ry="11" style="stroke: #000000; stroke-width: 1.0;"/><ellipse cx="72" cy="1267.3341" fill="#000000" rx="6" ry="6" style="stroke: #7F7F7F; stroke-width: 1.0;"/><rect fill="#F8F8F8" height="37.3761" rx="12.5" ry="12.5" style="stroke: #383838; stroke-width: 1.5;" width="116" x="152" y="879.7012"/><text fill="#000000" font-family="Noto Sans CJK JP" font-size="12" lengthAdjust="spacingAndGlyphs" textLength="96" x="162" y="903.6213">支払い方法を変更</text><ellipse cx="210" cy="963.0773" fill="#FFFFFF" rx="11" ry="11" style="stroke: #000000; stroke-width: 1.0;"/><ellipse cx="210" cy="963.0773" fill="#000000" rx="6" ry="6" style="stroke: #7F7F7F; stroke-width: 1.0;"/><rect fill="#F8F8F8" height="37.3761" rx="12.5" ry="12.5" style="stroke: #383838; stroke-width: 1.5;" width="92" x="298" y="648.5729"/><text fill="#000000" font-family="Noto Sans CJK JP" font-size="12" lengthAdjust="spacingAndGlyphs" textLength="72" x="308" y="672.493">別商品を検討</text><ellipse cx="344" cy="716.949" fill="#FFFFFF" rx="11" ry="11" style="stroke: #000000; stroke-width: 1.0;"/><ellipse cx="344" cy="716.949" fill="#000000" rx="6" ry="6" style="stroke: #7F7F7F; stroke-width: 1.0;"/><rect fill="#F8F8F8" height="37.3761" rx="12.5" ry="12.5" style="stroke: #383838; stroke-width: 1.5;" width="152" x="400" y="168.1878"/><text fill="#000000" font-family="Noto Sans CJK JP" font-size="12" lengthAdjust="spacingAndGlyphs" textLength="132" x="410" y="192.1079">問い合わせを受け付ける</text><rect fill="#F8F8F8" height="54.7522" rx="12.5" ry="12.5" style="stroke: #383838; stroke-width: 1.5;" width="92" x="430" y="472.4445"/><text fill="#000000" font-family="Noto Sans CJK JP" font-size="12" lengthAdjust="spacingAndGlyphs" textLength="60" x="440" y="496.3646">在庫状況を</text><text fill="#000000" font-family="Noto Sans CJK JP" font-size="12" lengthAdjust="spacingAndGlyphs" textLength="72" x="440" y="513.7407">顧客へ伝える</text><rect fill="#F8F8F8" height="37.3761" rx="12.5" ry="12.5" style="stroke: #383838; stroke-width: 1.5;" width="104" x="562" y="225.5639"/><text fill="#000000" font-family="Noto Sans CJK JP" font-size="12" lengthAdjust="spacingAndGlyphs" textLength="84" x="572" y="249.484">商品情報を参照</text><rect fill="#F8F8F8" height="37.3761" rx="12.5" ry="12.5" style="stroke: #383838; stroke-width: 1.5;" width="104" x="678.5" y="282.94"/><text fill="#000000" font-family="Noto Sans CJK JP" font-size="12" lengthAdjust="spacingAndGlyphs" textLength="84" x="688.5" y="306.8601">在庫を照会する</text><rect fill="#F8F8F8" height="37.3761" rx="12.5" ry="12.5" style="stroke: #383838; stroke-width: 1.5;" width="104" x="678.5" y="415.0684"/><text fill="#000000" font-family="Noto Sans CJK JP" font-size="12" lengthAdjust="spacingAndGlyphs" textLength="84" x="688.5" y="438.9885">在庫結果を返す</text><rect fill="#F8F8F8" height="54.7522" rx="12.5" ry="12.5" style="stroke: #383838; stroke-width: 1.5;" width="120" x="794" y="340.3161"/><text fill="#000000" font-family="Noto Sans CJK JP" font-size="12" lengthAdjust="spacingAndGlyphs" textLength="100" x="804" y="364.2362">&lt;&lt;データストア&gt;&gt;</text><text fill="#000000" font-family="Noto Sans CJK JP" font-size="12" lengthAdjust="spacingAndGlyphs" textLength="48" x="804" y="381.6123">在庫情報</text><rect fill="#F8F8F8" height="37.3761" rx="12.5" ry="12.5" style="stroke: #383838; stroke-width: 1.5;" width="104" x="926.5" y="648.5729"/><text fill="#000000" font-family="Noto Sans CJK JP" font-size="12" lengthAdjust="spacingAndGlyphs" textLength="84" x="936.5" y="672.493">注文を作成する</text><rect fill="#F8F8F8" height="37.3761" rx="12.5" ry="12.5" style="stroke: #383838; stroke-width: 1.5;" width="104" x="1044" y="705.949"/><text fill="#000000" font-family="Noto Sans CJK JP" font-size="12" lengthAdjust="spacingAndGlyphs" textLength="84" x="1054" y="729.8691">決済を実行する</text><polygon fill="#F8F8F8" points="1072,763.3251,1120,763.3251,1132,775.3251,1120,787.3251,1072,787.3251,1060,775.3251,1072,763.3251" style="stroke: #383838; stroke-width: 1.5;"/><text fill="#000000" font-family="Noto Sans CJK JP" font-size="11" lengthAdjust="spacingAndGlyphs" textLength="48" x="1072" y="780.1211">決済OK？</text><text fill="#000000" font-family="Noto Sans CJK JP" font-size="11" lengthAdjust="spacingAndGlyphs" textLength="15" x="1045" y="772.1571">OK</text><text fill="#000000" font-family="Noto Sans CJK JP" font-size="11" lengthAdjust="spacingAndGlyphs" textLength="16" x="1132" y="772.1571">NG</text><rect fill="#F8F8F8" height="54.7522" rx="12.5" ry="12.5" style="stroke: #383838; stroke-width: 1.5;" width="120" x="1160" y="807.3251"/><text fill="#000000" font-family="Noto Sans CJK JP" font-size="12" lengthAdjust="spacingAndGlyphs" textLength="100" x="1170" y="831.2452">&lt;&lt;データストア&gt;&gt;</text><text fill="#000000" font-family="Noto Sans CJK JP" font-size="12" lengthAdjust="spacingAndGlyphs" textLength="48" x="1170" y="848.6213">売上情報</text><rect fill="#F8F8F8" height="37.3761" rx="12.5" ry="12.5" style="stroke: #383838; stroke-width: 1.5;" width="116" x="1290" y="897.0773"/><text fill="#000000" font-family="Noto Sans CJK JP" font-size="12" lengthAdjust="spacingAndGlyphs" textLength="96" x="1300" y="920.9974">出荷指示を受ける</text><rect fill="#F8F8F8" height="37.3761" rx="12.5" ry="12.5" style="stroke: #383838; stroke-width: 1.5;" width="116" x="1290" y="969.4535"/><text fill="#000000" font-family="Noto Sans CJK JP" font-size="12" lengthAdjust="spacingAndGlyphs" textLength="96" x="1300" y="993.3736">商品をピッキング</text><rect fill="#F8F8F8" height="37.3761" rx="12.5" ry="12.5" style="stroke: #383838; stroke-width: 1.5;" width="68" x="1314" y="1026.8296"/><text fill="#000000" font-family="Noto Sans CJK JP" font-size="12" lengthAdjust="spacingAndGlyphs" textLength="48" x="1324" y="1050.7497">梱包する</text><rect fill="#F8F8F8" height="37.3761" rx="12.5" ry="12.5" style="stroke: #383838; stroke-width: 1.5;" width="68" x="1418.5" y="1084.2057"/><text fill="#000000" font-family="Noto Sans CJK JP" font-size="12" lengthAdjust="spacingAndGlyphs" textLength="48" x="1428.5" y="1108.1258">配送する</text><rect fill="#F8F8F8" height="37.3761" rx="12.5" ry="12.5" style="stroke: #383838; stroke-width: 1.5;" width="104" x="1498" y="1141.5818"/><text fill="#000000" font-family="Noto Sans CJK JP" font-size="12" lengthAdjust="spacingAndGlyphs" textLength="84" x="1508" y="1165.5019">発送通知を送る</text><rect fill="#F8F8F8" height="37.3761" rx="12.5" ry="12.5" style="stroke: #383838; stroke-width: 1.5;" width="104" x="1622.5" y="807.3251"/><text fill="#000000" font-family="Noto Sans CJK JP" font-size="12" lengthAdjust="spacingAndGlyphs" textLength="84" x="1632.5" y="831.2452">決済失敗を通知</text><rect fill="#F8F8F8" height="37.3761" rx="12.5" ry="12.5" style="stroke: #383838; stroke-width: 1.5;" width="80" x="1736.5" y="591.1967"/><text fill="#000000" font-family="Noto Sans CJK JP" font-size="12" lengthAdjust="spacingAndGlyphs" textLength="60" x="1746.5" y="615.1168">欠品を通知</text><line style="stroke: #383838; stroke-width: 1.5;" x1="242.5" x2="242.5" y1="90.8116" y2="110.8116"/><polygon fill="#383838" points="238.5,100.8116,242.5,110.8116,246.5,100.8116,242.5,104.8116" style="stroke: #383838; stroke-width: 1.0;"/><line style="stroke: #383838; stroke-width: 1.5;" x1="72" x2="72" y1="1236.3341" y2="1256.3341"/><polygon fill="#383838" points="68,1246.3341,72,1256.3341,76,1246.3341,72,1250.3341" style="stroke: #383838; stroke-width: 1.0;"/><line style="stroke: #383838; stroke-width: 1.5;" x1="210" x2="210" y1="917.0773" y2="952.0773"/><polygon fill="#383838" points="206,942.0773,210,952.0773,214,942.0773,210,946.0773" style="stroke: #383838; stroke-width: 1.0;"/><line style="stroke: #383838; stroke-width: 1.5;" x1="344" x2="344" y1="685.949" y2="705.949"/><polygon fill="#383838" points="340,695.949,344,705.949,348,695.949,344,699.949" style="stroke: #383838; stroke-width: 1.0;"/><line style="stroke: #383838; stroke-width: 1.5;" x1="203" x2="141" y1="559.1967" y2="559.1967"/><line style="stroke: #383838; stroke-width: 1.5;" x1="141" x2="141" y1="559.1967" y2="591.1967"/><polygon fill="#383838" points="137,581.1967,141,591.1967,145,581.1967,141,585.1967" style="stroke: #383838; stroke-width: 1.0;"/><line style="stroke: #383838; stroke-width: 1.5;" x1="1096" x2="1096" y1="743.3251" y2="763.3251"/><polygon fill="#383838" points="1092,753.3251,1096,763.3251,1100,753.3251,1096,757.3251" style="stroke: #383838; stroke-width: 1.0;"/><line style="stroke: #383838; stroke-width: 1.5;" x1="1348" x2="1348" y1="934.4535" y2="969.4535"/><polygon fill="#383838" points="1344,959.4535,1348,969.4535,1352,959.4535,1348,963.4535" style="stroke: #383838; stroke-width: 1.0;"/><line style="stroke: #383838; stroke-width: 1.5;" x1="1348" x2="1348" y1="1006.8296" y2="1026.8296"/><polygon fill="#383838" points="1344,1016.8296,1348,1026.8296,1352,1016.8296,1348,1020.8296" style="stroke: #383838; stroke-width: 1.0;"/><line style="stroke: #383838; stroke-width: 1.5;" x1="242.5" x2="242.5" y1="148.1878" y2="153.1878"/><line style="stroke: #383838; stroke-width: 1.5;" x1="242.5" x2="476" y1="153.1878" y2="153.1878"/><line style="stroke: #383838; stroke-width: 1.5;" x1="476" x2="476" y1="153.1878" y2="168.1878"/><polygon fill="#383838" points="472,158.1878,476,168.1878,480,158.1878,476,162.1878" style="stroke: #383838; stroke-width: 1.0;"/><line style="stroke: #383838; stroke-width: 1.5;" x1="476" x2="476" y1="205.5639" y2="210.5639"/><line style="stroke: #383838; stroke-width: 1.5;" x1="476" x2="614" y1="210.5639" y2="210.5639"/><line style="stroke: #383838; stroke-width: 1.5;" x1="614" x2="614" y1="210.5639" y2="225.5639"/><polygon fill="#383838" points="610,215.5639,614,225.5639,618,215.5639,614,219.5639" style="stroke: #383838; stroke-width: 1.0;"/><line style="stroke: #383838; stroke-width: 1.5;" x1="614" x2="614" y1="262.94" y2="267.94"/><line style="stroke: #383838; stroke-width: 1.5;" x1="614" x2="730.5" y1="267.94" y2="267.94"/><line style="stroke: #383838; stroke-width: 1.5;" x1="730.5" x2="730.5" y1="267.94" y2="282.94"/><polygon fill="#383838" points="726.5,272.94,730.5,282.94,734.5,272.94,730.5,276.94" style="stroke: #383838; stroke-width: 1.0;"/><line style="stroke: #383838; stroke-width: 1.5;" x1="730.5" x2="730.5" y1="320.3161" y2="325.3161"/><line style="stroke: #383838; stroke-width: 1.5;" x1="730.5" x2="854" y1="325.3161" y2="325.3161"/><line style="stroke: #383838; stroke-width: 1.5;" x1="854" x2="854" y1="325.3161" y2="340.3161"/><polygon fill="#383838" points="850,330.3161,854,340.3161,858,330.3161,854,334.3161" style="stroke: #383838; stroke-width: 1.0;"/><line style="stroke: #383838; stroke-width: 1.5;" x1="854" x2="854" y1="395.0684" y2="400.0684"/><line style="stroke: #383838; stroke-width: 1.5;" x1="854" x2="730.5" y1="400.0684" y2="400.0684"/><line style="stroke: #383838; stroke-width: 1.5;" x1="730.5" x2="730.5" y1="400.0684" y2="415.0684"/><polygon fill="#383838" points="726.5,405.0684,730.5,415.0684,734.5,405.0684,730.5,409.0684" style="stroke: #383838; stroke-width: 1.0;"/><line style="stroke: #383838; stroke-width: 1.5;" x1="730.5" x2="730.5" y1="452.4445" y2="457.4445"/><line style="stroke: #383838; stroke-width: 1.5;" x1="730.5" x2="476" y1="457.4445" y2="457.4445"/><line style="stroke: #383838; stroke-width: 1.5;" x1="476" x2="476" y1="457.4445" y2="472.4445"/><polygon fill="#383838" points="472,462.4445,476,472.4445,480,462.4445,476,466.4445" style="stroke: #383838; stroke-width: 1.0;"/><line style="stroke: #383838; stroke-width: 1.5;" x1="141" x2="141" y1="628.5729" y2="633.5729"/><line style="stroke: #383838; stroke-width: 1.5;" x1="141" x2="978.5" y1="633.5729" y2="633.5729"/><line style="stroke: #383838; stroke-width: 1.5;" x1="978.5" x2="978.5" y1="633.5729" y2="648.5729"/><polygon fill="#383838" points="974.5,638.5729,978.5,648.5729,982.5,638.5729,978.5,642.5729" style="stroke: #383838; stroke-width: 1.0;"/><line style="stroke: #383838; stroke-width: 1.5;" x1="978.5" x2="978.5" y1="685.949" y2="690.949"/><line style="stroke: #383838; stroke-width: 1.5;" x1="978.5" x2="1096" y1="690.949" y2="690.949"/><line style="stroke: #383838; stroke-width: 1.5;" x1="1096" x2="1096" y1="690.949" y2="705.949"/><polygon fill="#383838" points="1092,695.949,1096,705.949,1100,695.949,1096,699.949" style="stroke: #383838; stroke-width: 1.0;"/><line style="stroke: #383838; stroke-width: 1.5;" x1="1220" x2="1220" y1="862.0773" y2="879.5773"/><line style="stroke: #383838; stroke-width: 1.5;" x1="1220" x2="1348" y1="879.5773" y2="879.5773"/><line style="stroke: #383838; stroke-width: 1.5;" x1="1348" x2="1348" y1="879.5773" y2="897.0773"/><polygon fill="#383838" points="1344,887.0773,1348,897.0773,1352,887.0773,1348,891.0773" style="stroke: #383838; stroke-width: 1.0;"/><line style="stroke: #383838; stroke-width: 1.5;" x1="1348" x2="1348" y1="1064.2057" y2="1069.2057"/><line style="stroke: #383838; stroke-width: 1.5;" x1="1348" x2="1452.5" y1="1069.2057" y2="1069.2057"/><line style="stroke: #383838; stroke-width: 1.5;" x1="1452.5" x2="1452.5" y1="1069.2057" y2="1084.2057"/><polygon fill="#383838" points="1448.5,1074.2057,1452.5,1084.2057,1456.5,1074.2057,1452.5,1078.2057" style="stroke: #383838; stroke-width: 1.0;"/><line style="stroke: #383838; stroke-width: 1.5;" x1="1452.5" x2="1452.5" y1="1121.5818" y2="1126.5818"/><line style="stroke: #383838; stroke-width: 1.5;" x1="1452.5" x2="1550" y1="1126.5818" y2="1126.5818"/><line style="stroke: #383838; stroke-width: 1.5;" x1="1550" x2="1550" y1="1126.5818" y2="1141.5818"/><polygon fill="#383838" points="1546,1131.5818,1550,1141.5818,1554,1131.5818,1550,1135.5818" style="stroke: #383838; stroke-width: 1.0;"/><line style="stroke: #383838; stroke-width: 1.5;" x1="1550" x2="1550" y1="1178.958" y2="1183.958"/><line style="stroke: #383838; stroke-width: 1.5;" x1="1550" x2="72" y1="1183.958" y2="1183.958"/><line style="stroke: #383838; stroke-width: 1.5;" x1="72" x2="72" y1="1183.958" y2="1198.958"/><polygon fill="#383838" points="68,1188.958,72,1198.958,76,1188.958,72,1192.958" style="stroke: #383838; stroke-width: 1.0;"/><line style="stroke: #383838; stroke-width: 1.5;" x1="1674.5" x2="1674.5" y1="844.7012" y2="862.2012"/><line style="stroke: #383838; stroke-width: 1.5;" x1="1674.5" x2="210" y1="862.2012" y2="862.2012"/><line style="stroke: #383838; stroke-width: 1.5;" x1="210" x2="210" y1="862.2012" y2="879.7012"/><polygon fill="#383838" points="206,869.7012,210,879.7012,214,869.7012,210,873.7012" style="stroke: #383838; stroke-width: 1.0;"/><line style="stroke: #383838; stroke-width: 1.5;" x1="1060" x2="1048" y1="775.3251" y2="775.3251"/><line style="stroke: #383838; stroke-width: 1.5;" x1="1048" x2="1048" y1="775.3251" y2="793.3251"/><line style="stroke: #383838; stroke-width: 1.5;" x1="1048" x2="1220" y1="793.3251" y2="793.3251"/><line style="stroke: #383838; stroke-width: 1.5;" x1="1220" x2="1220" y1="793.3251" y2="807.3251"/><polygon fill="#383838" points="1216,797.3251,1220,807.3251,1224,797.3251,1220,801.3251" style="stroke: #383838; stroke-width: 1.0;"/><line style="stroke: #383838; stroke-width: 1.5;" x1="1132" x2="1674.5" y1="775.3251" y2="775.3251"/><line style="stroke: #383838; stroke-width: 1.5;" x1="1674.5" x2="1674.5" y1="775.3251" y2="807.3251"/><polygon fill="#383838" points="1670.5,797.3251,1674.5,807.3251,1678.5,797.3251,1674.5,801.3251" style="stroke: #383838; stroke-width: 1.0;"/><line style="stroke: #383838; stroke-width: 1.5;" x1="1776.5" x2="1776.5" y1="628.5729" y2="633.5729"/><line style="stroke: #383838; stroke-width: 1.5;" x1="1776.5" x2="344" y1="633.5729" y2="633.5729"/><line style="stroke: #383838; stroke-width: 1.5;" x1="344" x2="344" y1="633.5729" y2="648.5729"/><polygon fill="#383838" points="340,638.5729,344,648.5729,348,638.5729,344,642.5729" style="stroke: #383838; stroke-width: 1.0;"/><line style="stroke: #383838; stroke-width: 1.5;" x1="282" x2="1776.5" y1="559.1967" y2="559.1967"/><line style="stroke: #383838; stroke-width: 1.5;" x1="1776.5" x2="1776.5" y1="559.1967" y2="591.1967"/><polygon fill="#383838" points="1772.5,581.1967,1776.5,591.1967,1780.5,581.1967,1776.5,585.1967" style="stroke: #383838; stroke-width: 1.0;"/><line style="stroke: #383838; stroke-width: 1.5;" x1="476" x2="476" y1="527.1967" y2="532.1967"/><line style="stroke: #383838; stroke-width: 1.5;" x1="476" x2="242.5" y1="532.1967" y2="532.1967"/><line style="stroke: #383838; stroke-width: 1.5;" x1="242.5" x2="242.5" y1="532.1967" y2="547.1967"/><polygon fill="#383838" points="238.5,537.1967,242.5,547.1967,246.5,537.1967,242.5,541.1967" style="stroke: #383838; stroke-width: 1.0;"/><text fill="#000000" font-family="Noto Sans CJK JP" font-size="18" lengthAdjust="spacingAndGlyphs" textLength="36" x="186.5" y="60.6277">顧客</text><text fill="#000000" font-family="Noto Sans CJK JP" font-size="18" lengthAdjust="spacingAndGlyphs" textLength="144" x="403.5" y="60.6277">店舗受付（店員）</text><text fill="#000000" font-family="Noto Sans CJK JP" font-size="18" lengthAdjust="spacingAndGlyphs" textLength="90" x="568.5" y="60.6277">商品マスタ</text><text fill="#000000" font-family="Noto Sans CJK JP" font-size="18" lengthAdjust="spacingAndGlyphs" textLength="108" x="676" y="60.6277">在庫サービス</text><text fill="#000000" font-family="Noto Sans CJK JP" font-size="18" lengthAdjust="spacingAndGlyphs" textLength="60" x="823.5" y="60.6277">在庫DB</text><text fill="#000000" font-family="Noto Sans CJK JP" font-size="18" lengthAdjust="spacingAndGlyphs" textLength="108" x="924" y="60.6277">注文サービス</text><text fill="#000000" font-family="Noto Sans CJK JP" font-size="18" lengthAdjust="spacingAndGlyphs" textLength="108" x="1042" y="60.6277">決済サービス</text><text fill="#000000" font-family="Noto Sans CJK JP" font-size="18" lengthAdjust="spacingAndGlyphs" textLength="60" x="1189.5" y="60.6277">売上DB</text><text fill="#000000" font-family="Noto Sans CJK JP" font-size="18" lengthAdjust="spacingAndGlyphs" textLength="79" x="1308" y="60.6277">倉庫/出荷</text><text fill="#000000" font-family="Noto Sans CJK JP" font-size="18" lengthAdjust="spacingAndGlyphs" textLength="72" x="1416" y="60.6277">配送会社</text><text fill="#000000" font-family="Noto Sans CJK JP" font-size="18" lengthAdjust="spacingAndGlyphs" textLength="108" x="1612" y="60.6277">通知サービス</text><line style="stroke: #000000; stroke-width: 2.0;" x1="10" x2="10" y1="39.7478" y2="1310.3341"/><line style="stroke: #000000; stroke-width: 2.0;" x1="395" x2="395" y1="39.7478" y2="1310.3341"/><line style="stroke: #000000; stroke-width: 2.0;" x1="557" x2="557" y1="39.7478" y2="1310.3341"/><line style="stroke: #000000; stroke-width: 2.0;" x1="671" x2="671" y1="39.7478" y2="1310.3341"/><line style="stroke: #000000; stroke-width: 2.0;" x1="789" x2="789" y1="39.7478" y2="1310.3341"/><line style="stroke: #000000; stroke-width: 2.0;" x1="919" x2="919" y1="39.7478" y2="1310.3341"/><line style="stroke: #000000; stroke-width: 2.0;" x1="1037" x2="1037" y1="39.7478" y2="1310.3341"/><line style="stroke: #000000; stroke-width: 2.0;" x1="1155" x2="1155" y1="39.7478" y2="1310.3341"/><line style="stroke: #000000; stroke-width: 2.0;" x1="1285" x2="1285" y1="39.7478" y2="1310.3341"/><line style="stroke: #000000; stroke-width: 2.0;" x1="1411" x2="1411" y1="39.7478" y2="1310.3341"/><line style="stroke: #000000; stroke-width: 2.0;" x1="1493" x2="1493" y1="39.7478" y2="1310.3341"/><line style="stroke: #000000; stroke-width: 2.0;" x1="1825.5" x2="1825.5" y1="39.7478" y2="1310.3341"/><!--MD5=[59d63c3e98dfaddb8d2a9e6f838859bd]
@startuml
title 商品問い合わせ〜購入（スイムレーン 9レーン例）

skinparam defaultFontName "Noto Sans CJK JP"
skinparam activityFontName "Noto Sans CJK JP"
skinparam titleFontName "Noto Sans CJK JP"

skinparam shadowing false
skinparam monochrome true


|顧客|
start
:商品を問い合わせる;

|店舗受付（店員）|
:問い合わせを受け付ける;

|商品マスタ|
:商品情報を参照;

|在庫サービス|
:在庫を照会する;

|在庫DB|
:<<データストア>>\n在庫情報;

|在庫サービス|
:在庫結果を返す;

|店舗受付（店員）|
:在庫状況を\n顧客へ伝える;

|顧客|
if (在庫あり？) then (在庫あり)
  :購入意思を伝える;

  |注文サービス|
  :注文を作成する;

  |決済サービス|
  :決済を実行する;

  if (決済OK？) then (OK)
    |売上DB|
    :<<データストア>>\n売上情報;

    |倉庫/出荷|
    :出荷指示を受ける;
    :商品をピッキング;
    :梱包する;

    |配送会社|
    :配送する;

    |通知サービス|
    :発送通知を送る;

    |顧客|
    :商品を受け取る;
    stop

  else (NG)
    |通知サービス|
    :決済失敗を通知;

    |顧客|
    :支払い方法を変更;
    stop
  endif

else (売り切れ)
  |通知サービス|
  :欠品を通知;

  |顧客|
  :別商品を検討;
  stop
endif

@enduml

PlantUML version 1.2020.02(Sun Mar 01 10:22:07 UTC 2020)
(GPL source distribution)
Java Runtime: OpenJDK Runtime Environment
JVM: OpenJDK 64-Bit Server VM
Java Version: 17.0.18+8
Operating System: Linux
Default Encoding: UTF-8
Language: en
Country: null
--></g></svg>