<?plantuml 1.2026.1?><svg xmlns="http://www.w3.org/2000/svg" xmlns:xlink="http://www.w3.org/1999/xlink" contentStyleType="text/css" data-diagram-type="ACTIVITY" height="400px" preserveAspectRatio="none" style="width:218px;height:400px;background:#FFFFFF;" version="1.1" viewBox="0 0 218 400" width="218px" zoomAndPan="magnify"><title>&#12525;&#12464;&#12452;&#12531;&#20966;&#29702; &#12450;&#12463;&#12486;&#12451;&#12499;&#12486;&#12451;&#22259;</title><defs/><g><g class="title" data-source-line="1"><text fill="#000000" font-family="sans-serif" font-size="14" font-weight="bold" lengthAdjust="spacing" textLength="122.4932" x="46.6646" y="32.9951">&#12525;&#12464;&#12452;&#12531;&#20966;&#29702; &#12450;&#12463;&#12486;&#12451;&#12499;&#12486;&#12451;&#22259;</text></g><ellipse cx="107.6108" cy="57.2969" fill="#222222" rx="10" ry="10" style="stroke:#222222;stroke-width:1;"/><rect fill="#F1F1F1" height="33.9688" rx="12.5" ry="12.5" style="stroke:#181818;stroke-width:0.5;" width="77.6094" x="68.8062" y="87.2969"/><text fill="#000000" font-family="sans-serif" font-size="12" lengthAdjust="spacing" textLength="57.6094" x="78.8062" y="108.4355">&#12525;&#12464;&#12452;&#12531;&#30011;&#38754;&#34920;&#31034;</text><rect fill="#F1F1F1" height="33.9688" rx="12.5" ry="12.5" style="stroke:#181818;stroke-width:0.5;" width="90.3887" x="62.4165" y="141.2656"/><text fill="#000000" font-family="sans-serif" font-size="12" lengthAdjust="spacing" textLength="70.3887" x="72.4165" y="162.4043">ID&#12539;&#12497;&#12473;&#12527;&#12540;&#12489;&#20837;&#21147;</text><polygon fill="#F1F1F1" points="91.4895,195.2344,123.7322,195.2344,135.7322,207.2344,123.7322,219.2344,91.4895,219.2344,79.4895,207.2344,91.4895,195.2344" style="stroke:#181818;stroke-width:0.5;"/><text fill="#000000" font-family="sans-serif" font-size="11" lengthAdjust="spacing" textLength="32.2427" x="91.4895" y="211.0425">&#35469;&#35388;&#25104;&#21151;?</text><text fill="#000000" font-family="sans-serif" font-size="11" lengthAdjust="spacing" textLength="19.2178" x="60.2717" y="204.6401">Yes</text><text fill="#000000" font-family="sans-serif" font-size="11" lengthAdjust="spacing" textLength="14.9585" x="135.7322" y="204.6401">No</text><rect fill="#F1F1F1" height="33.9688" rx="12.5" ry="12.5" style="stroke:#181818;stroke-width:0.5;" width="84.8105" x="11" y="229.2344"/><text fill="#000000" font-family="sans-serif" font-size="12" lengthAdjust="spacing" textLength="64.8105" x="21" y="250.373">&#12480;&#12483;&#12471;&#12517;&#12508;&#12540;&#12489;&#34920;&#31034;</text><rect fill="#F1F1F1" height="33.9688" rx="12.5" ry="12.5" style="stroke:#181818;stroke-width:0.5;" width="92.0117" x="115.8105" y="229.2344"/><text fill="#000000" font-family="sans-serif" font-size="12" lengthAdjust="spacing" textLength="72.0117" x="125.8105" y="250.373">&#12456;&#12521;&#12540;&#12513;&#12483;&#12475;&#12540;&#12472;&#34920;&#31034;</text><rect fill="#F1F1F1" height="33.9688" rx="12.5" ry="12.5" style="stroke:#181818;stroke-width:0.5;" width="41.6035" x="141.0146" y="283.2031"/><text fill="#000000" font-family="sans-serif" font-size="12" lengthAdjust="spacing" textLength="21.6035" x="151.0146" y="304.3418">&#20877;&#20837;&#21147;</text><polygon fill="#F1F1F1" points="107.6108,323.1719,119.6108,335.1719,107.6108,347.1719,95.6108,335.1719,107.6108,323.1719" style="stroke:#181818;stroke-width:0.5;"/><ellipse cx="107.6108" cy="378.1719" fill="none" rx="11" ry="11" style="stroke:#222222;stroke-width:1;"/><ellipse cx="107.6108" cy="378.1719" fill="#222222" rx="6" ry="6" style="stroke:#222222;stroke-width:1;"/><line style="stroke:#181818;stroke-width:1;" x1="107.6108" x2="107.6108" y1="67.2969" y2="87.2969"/><polygon fill="#181818" points="103.6108,77.2969,107.6108,87.2969,111.6108,77.2969,107.6108,81.2969" style="stroke:#181818;stroke-width:1;"/><line style="stroke:#181818;stroke-width:1;" x1="107.6108" x2="107.6108" y1="121.2656" y2="141.2656"/><polygon fill="#181818" points="103.6108,131.2656,107.6108,141.2656,111.6108,131.2656,107.6108,135.2656" style="stroke:#181818;stroke-width:1;"/><line style="stroke:#181818;stroke-width:1;" x1="161.8164" x2="161.8164" y1="263.2031" y2="283.2031"/><polygon fill="#181818" points="157.8164,273.2031,161.8164,283.2031,165.8164,273.2031,161.8164,277.2031" style="stroke:#181818;stroke-width:1;"/><line style="stroke:#181818;stroke-width:1;" x1="79.4895" x2="53.4053" y1="207.2344" y2="207.2344"/><line style="stroke:#181818;stroke-width:1;" x1="53.4053" x2="53.4053" y1="207.2344" y2="229.2344"/><polygon fill="#181818" points="49.4053,219.2344,53.4053,229.2344,57.4053,219.2344,53.4053,223.2344" style="stroke:#181818;stroke-width:1;"/><line style="stroke:#181818;stroke-width:1;" x1="135.7322" x2="161.8164" y1="207.2344" y2="207.2344"/><line style="stroke:#181818;stroke-width:1;" x1="161.8164" x2="161.8164" y1="207.2344" y2="229.2344"/><polygon fill="#181818" points="157.8164,219.2344,161.8164,229.2344,165.8164,219.2344,161.8164,223.2344" style="stroke:#181818;stroke-width:1;"/><line style="stroke:#181818;stroke-width:1;" x1="53.4053" x2="53.4053" y1="263.2031" y2="335.1719"/><line style="stroke:#181818;stroke-width:1;" x1="53.4053" x2="95.6108" y1="335.1719" y2="335.1719"/><polygon fill="#181818" points="85.6108,331.1719,95.6108,335.1719,85.6108,339.1719,89.6108,335.1719" style="stroke:#181818;stroke-width:1;"/><line style="stroke:#181818;stroke-width:1;" x1="161.8164" x2="161.8164" y1="317.1719" y2="335.1719"/><line style="stroke:#181818;stroke-width:1;" x1="161.8164" x2="119.6108" y1="335.1719" y2="335.1719"/><polygon fill="#181818" points="129.6108,331.1719,119.6108,335.1719,129.6108,339.1719,125.6108,335.1719" style="stroke:#181818;stroke-width:1;"/><line style="stroke:#181818;stroke-width:1;" x1="107.6108" x2="107.6108" y1="175.2344" y2="195.2344"/><polygon fill="#181818" points="103.6108,185.2344,107.6108,195.2344,111.6108,185.2344,107.6108,189.2344" style="stroke:#181818;stroke-width:1;"/><line style="stroke:#181818;stroke-width:1;" x1="107.6108" x2="107.6108" y1="347.1719" y2="367.1719"/><polygon fill="#181818" points="103.6108,357.1719,107.6108,367.1719,111.6108,357.1719,107.6108,361.1719" style="stroke:#181818;stroke-width:1;"/><?plantuml-src JOx1Qi9G44Ntxojc6N_1BjnqqqttNGfzqa3GqhmFa1aQDI0exSwMeYOb5KJ1HLkJlxaya_v54qF0tOLxpfqnhl4qGRRWFJY27EpeCvy515w1Tv00l8QyrC4k3ahvfljaLFlIoL_Jl_TLiKpow7YbLFlc6f92vk1VI3cIGIRsERRXecpT7Zd5PbeasMayi-57fqNcGVV9kTD-In6LoqE8WByXCUIjrfjnxVcQdDj1JN82-Je3oxEILfb_6hX4R31jBkl-lTkh_Xyy_WC0?></g></svg>